<?xml version="1.0" encoding="utf-8"?>
<!-- Generator: Adobe Illustrator 16.0.0, SVG Export Plug-In . SVG Version: 6.00 Build 0)  -->
<!DOCTYPE svg PUBLIC "-//W3C//DTD SVG 1.1//EN" "http://www.w3.org/Graphics/SVG/1.1/DTD/svg11.dtd">
<svg version="1.1" xmlns="http://www.w3.org/2000/svg" xmlns:xlink="http://www.w3.org/1999/xlink" x="0px" y="0px"
	 width="174.422px" height="172.754px" viewBox="0 0 174.422 172.754" enable-background="new 0 0 174.422 172.754"
	 xml:space="preserve">
<g id="french_press">
	<g>
		<path fill="#231F20" d="M-209.61,180.827h-99.184c-12.186,0-21.357,15.212-21.357,25.076c0,2.209,1.791,4,4,4h133.899
			c2.209,0,4-1.791,4-4C-188.252,196.039-197.424,180.827-209.61,180.827z"/>
		<path fill="#231F20" d="M-188.832,36.557c-8.734-7.078-17.517-9.714-20.504-10.454V12.9c0-4.418-3.582-8-8-8h-39.935V2.291h39.935
			c0.007-0.001,0.013,0,0.02,0c2.209,0,4-1.791,4-4c0-0.388-0.055-0.764-0.159-1.119c-0.857-4.41-7.777-32.689-43.796-34.715v-9.243
			c0-2.209-1.791-4-4-4s-4,1.791-4,4v9.218c-39.065,2.037-45.736,34.772-45.801,35.114c-0.222,1.171,0.089,2.379,0.85,3.297
			c0.76,0.917,1.889,1.449,3.081,1.449h41.871V4.9h-63.911c-3.236,0-6.153,1.949-7.391,4.938s-0.554,6.431,1.734,8.719
			l21.075,21.074v130.859c0,4.418,3.582,8,8,8h88.428c4.418,0,8-3.582,8-8v-26.528c3.238-0.663,11.823-2.917,20.364-9.394
			c9.718-7.369,21.303-21.776,21.303-48.563C-167.668,59.31-179.177,44.38-188.832,36.557z M-217.335,84.532h-88.428V36.318
			L-329.182,12.9h63.911v58.646h-34.074c-3.038,0-5.5,2.462-5.5,5.5s2.462,5.5,5.5,5.5h75.754c3.038,0,5.5-2.462,5.5-5.5
			s-2.462-5.5-5.5-5.5h-33.68V12.9h39.935V84.532z M-209.335,132.67V37.572c3.189,1.094,8.401,3.336,13.578,7.531
			c11.339,9.189,17.089,22.951,17.089,40.903C-178.668,121.09-201.216,130.44-209.335,132.67z"/>
	</g>
</g>
<g id="coffee_beans">
	<g>
		<path fill="#231F20" d="M17.185,18.686c0,0-17.185,10.041-17.185,37.491c0,27.451,17.185,37.492,17.185,37.492
			c11.495,6.717,15.247,1.319,15.247-11.995V30.68C32.431,17.367,28.68,11.969,17.185,18.686z"/>
		<path fill="#231F20" d="M51.394,18.686c-11.495-6.717-15.246-1.319-15.246,11.994v50.994c0,13.313,3.751,18.711,15.246,11.995
			c0,0,17.184-10.041,17.184-37.492C68.578,28.727,51.394,18.686,51.394,18.686z"/>
	</g>
	<g>
		<path fill="#231F20" d="M103.235,150.538l35.158-36.937c9.178-9.645,10.182-16.14-2.774-19.2c0,0-19.37-4.575-38.296,15.308
			c-18.925,19.884-13.4,39.005-13.4,39.005C87.618,161.504,94.056,160.181,103.235,150.538z"/>
		<path fill="#231F20" d="M160.398,117.987c-3.696-12.79-10.135-11.467-19.312-1.823l-35.158,36.937
			c-9.179,9.643-10.182,16.14,2.774,19.199c0,0,19.37,4.575,38.295-15.309C165.922,137.107,160.398,117.987,160.398,117.987z"/>
	</g>
	<g>
		<path fill="#231F20" d="M173.005,25.202c0,0-6.549-18.795-33.486-24.073c-26.938-5.277-40.096,9.656-40.096,9.656
			c-8.802,9.99-4.227,14.708,8.838,17.269l50.043,9.804C171.369,40.416,177.386,37.772,173.005,25.202z"/>
		<path fill="#231F20" d="M157.589,41.505L107.547,31.7c-13.065-2.56-19.083,0.084-14.702,12.655c0,0,6.55,18.795,33.487,24.073
			c26.938,5.278,40.096-9.656,40.096-9.656C175.229,48.783,170.655,44.064,157.589,41.505z"/>
	</g>
	<rect id="_x3C_Slice_x3E_" x="-11.982" y="-6.628" fill="none" width="201" height="186"/>
</g>
<g id="drip_coffee">
	<path fill="#231F20" d="M581.652,66.641c-12.766-32.977-63.778-75.067-65.944-76.843c-1.334-1.093-3.218-1.209-4.679-0.285
		l-34.319,21.764c-10.788-13.567-19.917-24.942-19.917-24.942c-0.748-1.074-1.974-1.714-3.282-1.714h-97.012
		c-1.618,0-3.076,0.975-3.695,2.469s-0.277,3.215,0.867,4.359c6.086,6.086,12.911,13.14,16.88,19.836
		c5.605,9.459,2.167,12.897,0.873,14.191c-0.292,0.292-0.53,0.622-0.715,0.976c-8.313,5.822-18.27,16.945-25.969,27.978
		c-9.191,13.17-24.609,39.511-24.609,67.952c0,27.696,12.208,45.718,22.449,55.96c11.576,11.576,26.88,19.057,38.989,19.057h91.915
		c12.108,0,27.412-7.48,38.988-19.057c10.241-10.242,22.449-28.264,22.449-55.96c0-28.441-15.418-54.782-24.608-67.952
		c-3.667-5.254-16.448-21.531-28.6-36.854l31.126-19.739c9.974,8.494,50.784,44.39,61.352,71.69
		c0.614,1.586,2.127,2.557,3.731,2.557c0.48,0,0.969-0.087,1.443-0.271C581.425,71.017,582.449,68.701,581.652,66.641z
		 M503.752,59.009c8.652,12.399,23.169,37.121,23.169,63.374H328.13c0-26.253,14.517-50.974,23.169-63.374
		c9.723-13.932,19.284-22.946,24.907-26.703h102.639C484.469,36.063,494.031,45.078,503.752,59.009z"/>
</g>
<g id="coffee_cup">
	<g>
		<path fill="#231F20" d="M-181.236,456.363h-9.837v-17.502h-130.4v46.47c0,30.487,20.927,56.291,49.199,63.425
			c6.094,0,29.907,0.085,30.289,0c20.08-4.491,36.657-18.147,45.026-36.382c0.477,0,0.99-0.006,1.466-0.006h14.257
			c15.44,0,28.002-12.562,28.002-28.002S-165.795,456.363-181.236,456.363z M-181.236,504.368h-12.677
			c1.841-6.016,2.84-12.404,2.84-19.037v-20.968h9.837c11.029,0,20.002,8.974,20.002,20.003S-170.207,504.368-181.236,504.368z"/>
		<g>
			<path fill="#231F20" d="M-253.594,571.749c-67.16,0-104.448-5.963-104.995-16.791c-0.111-2.206,1.587-4.086,3.793-4.197
				c0.542-0.023,199.535-0.005,199.535-0.005c1.973,0,3.651,1.438,3.953,3.389c0.11,0.715,0.177,2.601-1.59,4.662
				C-162.068,569.503-212.718,571.749-253.594,571.749z"/>
		</g>
		<g>
			<g>
				<path fill="#231F20" d="M-281.665,428.044c-0.981,0-1.964-0.358-2.736-1.083c-1.611-1.512-1.692-4.043-0.18-5.653
					c0.775-0.836,18.928-20.871-0.798-40.6c-25.292-25.292-3.388-48.537-3.164-48.769c1.536-1.589,4.067-1.63,5.656-0.095
					c1.585,1.532,1.63,4.058,0.104,5.646c-0.714,0.751-16.577,17.921,3.062,37.561c20.203,20.205,9.472,42.672,0.975,51.729
					C-279.534,427.621-280.598,428.044-281.665,428.044z"/>
			</g>
			<g>
				<path fill="#231F20" d="M-258.728,428.044c-0.981,0-1.964-0.358-2.736-1.083c-1.611-1.512-1.692-4.043-0.18-5.653
					c0.775-0.836,18.928-20.871-0.798-40.6c-25.292-25.292-3.388-48.537-3.164-48.769c1.536-1.589,4.068-1.632,5.656-0.095
					c1.585,1.532,1.63,4.058,0.104,5.646c-0.714,0.751-16.577,17.921,3.062,37.561c20.203,20.205,9.472,42.672,0.975,51.729
					C-256.597,427.621-257.661,428.044-258.728,428.044z"/>
			</g>
			<g>
				<path fill="#231F20" d="M-235.792,428.044c-0.981,0-1.964-0.358-2.736-1.083c-1.611-1.512-1.692-4.043-0.18-5.653
					c0.775-0.836,18.928-20.871-0.798-40.6c-25.292-25.292-3.388-48.537-3.164-48.769c1.536-1.589,4.068-1.632,5.656-0.095
					c1.585,1.532,1.63,4.058,0.104,5.646c-0.714,0.751-16.577,17.921,3.062,37.561c20.203,20.205,9.472,42.672,0.975,51.729
					C-233.661,427.621-234.725,428.044-235.792,428.044z"/>
			</g>
		</g>
	</g>
</g>
<g id="to-go_cup">
	<g>
		<path fill="#231F20" d="M160.793,379.734c-0.759-0.843-1.84-1.324-2.974-1.324H27.42c-1.134,0-2.215,0.481-2.973,1.324
			c-0.759,0.843-1.124,1.968-1.005,3.096l20.016,189.584c0.215,2.035,1.932,3.58,3.978,3.58h90.368c2.047,0,3.763-1.545,3.978-3.58
			l20.016-189.584C161.917,381.702,161.551,380.577,160.793,379.734z M153.375,386.41l-5.899,55.879H37.764l-5.899-55.879H153.375z
			 M134.205,567.994H51.036l-4.812-45.584h92.793L134.205,567.994z"/>
		<path fill="#231F20" d="M165.82,354.611h-12.277l-6.248-24.967c-0.445-1.78-2.045-3.029-3.88-3.029H41.169
			c-1.835,0-3.435,1.249-3.88,3.029l-6.247,24.967H17.819c-2.209,0-4,1.791-4,4v13.6c0,2.209,1.791,4,4,4h148c2.209,0,4-1.791,4-4
			v-13.6C169.82,356.402,168.029,354.611,165.82,354.611z M44.292,334.615h96l5.003,19.996H39.289L44.292,334.615z M161.82,368.21
			h-140v-5.6h140V368.21z"/>
	</g>
</g>
<g id="milk__x26__sugar">
	<g>
		<path fill="#231F20" d="M509.244,579.165H473.56c-1.104,0-2-0.896-2-2v-35.684c0-1.104,0.896-2,2-2h35.684c1.104,0,2,0.896,2,2
			v35.684C511.244,578.269,510.348,579.165,509.244,579.165z M475.56,575.165h31.684v-31.684H475.56V575.165z"/>
	</g>
	<g>
		<path fill="#231F20" d="M552.088,579.165h-35.684c-1.104,0-2-0.896-2-2v-35.684c0-1.104,0.896-2,2-2h35.684c1.104,0,2,0.896,2,2
			v35.684C554.088,578.269,553.193,579.165,552.088,579.165z M518.405,575.165h31.684v-31.684h-31.684V575.165z"/>
	</g>
	<g>
		<path fill="#231F20" d="M528.723,541.553h-35.683c-1.104,0-2-0.896-2-2V503.87c0-1.104,0.896-2,2-2h35.683c1.104,0,2,0.896,2,2
			v35.684C530.723,540.658,529.828,541.553,528.723,541.553z M495.041,537.553h31.683V505.87h-31.683V537.553z"/>
	</g>
	<g>
		<path fill="#231F20" d="M583.707,579.546c-0.385,0-0.766-0.111-1.093-0.325l-29.885-19.5c-0.925-0.604-1.186-1.843-0.582-2.768
			l19.499-29.885c0.29-0.444,0.744-0.755,1.264-0.864c0.516-0.111,1.06-0.008,1.504,0.282l29.885,19.5
			c0.925,0.604,1.186,1.843,0.582,2.768l-19.499,29.885c-0.29,0.444-0.744,0.755-1.264,0.864
			C583.982,579.533,583.844,579.546,583.707,579.546z M556.589,557.464l26.535,17.314l17.313-26.535l-26.535-17.314L556.589,557.464
			z"/>
	</g>
	<g>
		<path fill="#231F20" d="M425.967,579.893h-51.588c-0.193,0-0.383-0.014-0.569-0.04c-11.186-0.708-26.633-10.794-26.633-31.575
			V435.363c0-27.01,6.804-39.225,15.418-54.689l1.042-1.87c7.601-13.684,10.459-20.787,13.094-29.649
			c-6.112-1.575-9.84-6.084-9.84-12.362c0-3.763,1.459-12.516,14.97-12.516h37.225c13.512,0,14.971,8.753,14.971,12.516
			c0,6.204-3.922,10.781-10.161,12.368c2.407,8.366,4.971,15.523,12.815,29.644l1.044,1.875
			c8.612,15.463,15.414,27.677,15.414,54.685v112.915c0,20.78-15.445,30.866-26.632,31.575
			C426.351,579.879,426.161,579.893,425.967,579.893z M421.614,571.893h3.671c6.229,0,19.884-5.946,19.884-23.615V435.363
			c0-24.93-5.729-35.219-14.403-50.792l-1.048-1.883c-9.206-16.569-11.508-24.052-14.785-35.851
			c-0.334-1.204-0.086-2.496,0.67-3.491c0.757-0.995,1.935-1.579,3.185-1.579c2.715,0,7.27-0.646,7.27-4.976
			c0-1.905,0-4.516-6.971-4.516h-37.225c-6.97,0-6.97,2.61-6.97,4.516c0,3.302,2.345,4.976,6.97,4.976
			c1.25,0,2.428,0.584,3.185,1.579c0.757,0.996,1.004,2.287,0.67,3.491c-3.007,10.822-5.522,18.635-15.085,35.851l-1.046,1.879
			c-8.676,15.574-14.407,25.863-14.407,50.796v112.915c0,17.669,13.654,23.615,19.884,23.615H421.614z"/>
	</g>
</g>
</svg>
