<?xml version="1.0" encoding="utf-8"?>
<!-- Generator: Adobe Illustrator 16.0.0, SVG Export Plug-In . SVG Version: 6.00 Build 0)  -->
<!DOCTYPE svg PUBLIC "-//W3C//DTD SVG 1.1//EN" "http://www.w3.org/Graphics/SVG/1.1/DTD/svg11.dtd">
<svg version="1.1" id="Layer_1" xmlns="http://www.w3.org/2000/svg" xmlns:xlink="http://www.w3.org/1999/xlink" x="0px" y="0px"
	 width="104px" height="96px" viewBox="0 0 104 96" enable-background="new 0 0 104 96" xml:space="preserve">
<g>
	<path fill="#683C11" d="M88.049,92.951c-0.443,1.379-1.92,2.139-3.297,1.697L4.842,69.01c-1.379-0.441-2.14-1.92-1.696-3.297
		l12.817-39.955c0.443-1.378,1.919-2.139,3.299-1.695l79.91,25.636c1.379,0.442,2.139,1.919,1.695,3.299L88.049,92.951z"/>
	<circle fill="#683C11" cx="41.843" cy="28.679" r="1.312"/>
	<path fill="#683C11" d="M45.678,26.67c-0.222,0.69-0.959,1.07-1.649,0.848c-0.689-0.221-1.067-0.959-0.85-1.648
		c0.224-0.689,0.961-1.069,1.65-0.848C45.52,25.243,45.9,25.982,45.678,26.67z"/>
	<circle fill="#683C11" cx="47.017" cy="23.862" r="1.311"/>
	<path fill="#683C11" d="M50.85,21.853c-0.22,0.689-0.957,1.07-1.648,0.848c-0.69-0.221-1.068-0.96-0.849-1.649
		c0.224-0.688,0.959-1.07,1.65-0.847C50.694,20.424,51.072,21.163,50.85,21.853z"/>
	<circle fill="#683C11" cx="52.189" cy="19.043" r="1.311"/>
	<circle fill="#683C11" cx="54.776" cy="16.634" r="1.311"/>
	<path fill="#683C11" d="M58.611,14.626c-0.221,0.688-0.961,1.069-1.65,0.847c-0.688-0.221-1.07-0.959-0.846-1.649
		c0.219-0.689,0.959-1.068,1.648-0.847C58.453,13.198,58.832,13.937,58.611,14.626z"/>
	<circle fill="#683C11" cx="59.948" cy="11.816" r="1.312"/>
	<path fill="#683C11" d="M63.783,9.808c-0.219,0.688-0.961,1.07-1.65,0.847c-0.688-0.221-1.068-0.96-0.846-1.649
		c0.221-0.69,0.961-1.069,1.648-0.848C63.625,8.381,64.004,9.118,63.783,9.808z"/>
	<circle fill="#683C11" cx="65.122" cy="6.998" r="1.312"/>
	<circle fill="#683C11" cx="67.707" cy="4.589" r="1.311"/>
	<path fill="#683C11" d="M69.992,6.504c-0.473-0.548-0.412-1.376,0.137-1.85c0.545-0.473,1.375-0.412,1.85,0.136
		c0.473,0.549,0.412,1.377-0.139,1.85C71.293,7.113,70.465,7.052,69.992,6.504z"/>
	<path fill="#683C11" d="M70.701,9.967c-0.475-0.547-0.412-1.375,0.137-1.849c0.547-0.472,1.375-0.414,1.848,0.134
		c0.475,0.548,0.412,1.376-0.137,1.85C72.004,10.576,71.176,10.515,70.701,9.967z"/>
	<circle fill="#683C11" cx="72.401" cy="12.573" r="1.312"/>
	<circle fill="#683C11" cx="73.111" cy="16.035" r="1.312"/>
	<circle fill="#683C11" cx="73.82" cy="19.499" r="1.311"/>
	<path fill="#683C11" d="M73.537,23.819c-0.475-0.549-0.416-1.377,0.135-1.85c0.549-0.475,1.375-0.413,1.85,0.135
		c0.471,0.548,0.412,1.375-0.137,1.849C74.838,24.427,74.01,24.366,73.537,23.819z"/>
	<circle fill="#683C11" cx="75.236" cy="26.424" r="1.311"/>
	<circle fill="#683C11" cx="75.945" cy="29.886" r="1.311"/>
	<circle fill="#683C11" cx="76.654" cy="33.35" r="1.311"/>
	<path fill="#683C11" d="M76.371,37.671c-0.475-0.55-0.414-1.378,0.133-1.851c0.551-0.475,1.377-0.414,1.85,0.134
		c0.475,0.548,0.414,1.376-0.133,1.849C77.672,38.279,76.844,38.218,76.371,37.671z"/>
	<circle fill="#683C11" cx="78.071" cy="40.275" r="1.311"/>
	<circle fill="#683C11" cx="70.295" cy="2.18" r="1.311"/>
</g>
<g>
	<g>
		<g>
			<path fill="#FFFFFF" d="M33.568,61.748c-1.996,6.221-7.999,8.404-13.91,6.508c-5.911-1.895-9.521-7.164-7.524-13.384
				c1.954-6.092,8.055-8.498,13.939-6.61C31.959,50.148,35.52,55.656,33.568,61.748z M19.193,57.25
				c-0.709,2.211,0.294,4.204,2.429,4.889c2.133,0.686,4.11-0.354,4.819-2.564c0.658-2.057-0.177-4.223-2.411-4.939
				C21.792,53.916,19.851,55.193,19.193,57.25z"/>
			<path fill="#FFFFFF" d="M38.156,52.479l8.918,2.859c4.523,1.452,7.124,4.835,5.58,9.642c-1.269,3.958-4.528,5.634-8.46,4.372
				l-3.598-1.154l-1.874,5.834l-6.784-2.178L38.156,52.479z M42.163,63.314l0.692,0.224c1.234,0.396,2.637,0.618,3.14-0.949
				c0.485-1.518-0.928-2.056-2.084-2.426l-0.668-0.216L42.163,63.314z"/>
			<path fill="#FFFFFF" d="M55.732,58.115l13.031,4.182l-1.697,5.295l-5.939-1.906l-0.592,1.852l5.424,1.74l-1.617,5.035
				l-5.422-1.738l-0.611,1.902l6.141,1.971l-1.697,5.295l-13.236-4.248L55.732,58.115z"/>
			<path fill="#FFFFFF" d="M70.74,62.932l6.762,2.168l2.875,12.771l0.205,0.066c0.238-1.711,0.463-3.48,0.992-5.125l1.863-5.809
				l6.734,2.16l-6.219,19.379l-6.732-2.158l-2.93-12.166l-0.203-0.066c-0.199,1.408-0.396,2.736-0.809,4.02l-2.02,6.299l-6.734-2.16
				L70.74,62.932z"/>
		</g>
	</g>
	<g>
		<g>
			<path fill="#FFFFFF" d="M65.209,48.094l-0.434,4.229l0.053,0.016c0.176-0.39,0.361-0.796,0.594-1.158l1.584-2.511l1.85,0.594
				l-0.365,4.251l0.053,0.016c0.16-0.375,0.332-0.766,0.543-1.117l1.562-2.575l2.51,0.807l-4.471,5.885l-2.104-0.676l0.398-3.852
				l-0.076-0.025c-0.137,0.336-0.262,0.664-0.445,0.965l-1.506,2.39l-2.049-0.657l-0.197-7.381L65.209,48.094z"/>
			<path fill="#FFFFFF" d="M73.473,50.744l4.465,1.432l-0.584,1.814l-2.033-0.652l-0.203,0.633l1.857,0.596l-0.553,1.725
				l-1.857-0.595l-0.209,0.651l2.104,0.675l-0.58,1.813l-4.533-1.455L73.473,50.744z"/>
			<path fill="#FFFFFF" d="M77.719,55.727l2.119-2.939l2.277,0.73l-2.627,2.778L77.719,55.727z"/>
			<path fill="#FFFFFF" d="M82.986,53.798l2.914,0.934c1.496,0.481,2.561,1.521,2.025,3.192c-0.324,1.004-0.846,1.303-1.84,1.313
				l-0.016,0.052c0.092,0.137,0.207,0.29,0.277,0.527l0.752,2.619l-2.781-0.893l-0.373-2.471L83.9,59.061l-0.684,2.129l-2.357-0.756
				L82.986,53.798z M84.404,57.494l0.166,0.054c0.396,0.126,0.812,0.191,0.971-0.301c0.164-0.511-0.18-0.688-0.59-0.821
				l-0.188-0.059L84.404,57.494z"/>
			<path fill="#FFFFFF" d="M89.438,55.867l4.465,1.432l-0.584,1.812l-2.033-0.652l-0.203,0.635l1.857,0.595l-0.555,1.726
				l-1.855-0.596l-0.209,0.652l2.104,0.674l-0.58,1.812l-4.533-1.453L89.438,55.867z"/>
		</g>
	</g>
	<path fill="#FFFFFF" d="M24.477,34.731c0.007-0.024,0.002-0.053-0.014-0.075l-0.041-0.062c-0.024-0.038-0.071-0.053-0.114-0.034
		c-0.394,0.162-0.668,0.473-0.786,0.846c-0.207,0.648,0.184,1.279,0.964,1.532c1.141,0.363,2.433-0.185,2.758-1.176
		c0.125-0.385,0.084-0.761-0.114-1.073c-0.196-0.312-0.543-0.556-1.018-0.708c-1.324-0.425-3.131-0.341-4.862,0.349
		c-1.888,0.754-3.176,2.027-3.595,3.327c-0.227,0.704-0.197,1.363,0.077,1.903c0.274,0.541,0.795,0.955,1.521,1.188
		c0.886,0.283,1.968,0.238,2.97-0.143c0.888-0.333,1.482-0.894,1.696-1.555c0.269-0.841-0.157-1.642-1.037-1.926
		c-1.025-0.325-2.269,0.393-2.723,1.803c-0.025,0.078-0.043,0.171-0.061,0.265c-0.009,0.046,0.02,0.092,0.063,0.106l0.077,0.025
		c0.024,0.007,0.051,0.006,0.073-0.005s0.04-0.031,0.046-0.055c0.018-0.059,0.028-0.132,0.068-0.25
		c0.176-0.547,0.478-0.976,0.812-1.236c0.334-0.262,0.691-0.354,0.987-0.26c0.478,0.158,0.664,0.594,0.435,1.337
		c-0.416,1.288-1.682,2.023-2.659,1.714c-0.79-0.257-1.128-1.073-0.786-2.166c0.478-1.489,1.857-2.985,3.779-3.806
		c1.171-0.502,2.241-0.579,2.936-0.354c0.465,0.162,0.601,0.431,0.473,0.867c-0.108,0.346-0.409,0.765-0.825,1.058
		c-0.441,0.308-0.9,0.4-1.279,0.278c-0.438-0.144-0.641-0.528-0.504-0.964c0.092-0.287,0.295-0.513,0.634-0.688
		C24.454,34.781,24.469,34.757,24.477,34.731z"/>
	<path fill="#FFFFFF" d="M31.451,41.043l-0.056-0.053c-0.033-0.033-0.082-0.037-0.118-0.012c-0.471,0.321-0.813,0.416-1.157,0.307
		c-0.46-0.15-0.547-0.499-0.659-1.168c-0.114-0.783-0.555-1.25-1.369-1.506c-0.785-0.252-1.712-0.194-2.519,0.153
		c-0.796,0.352-1.345,0.934-1.579,1.666c-0.154,0.476-0.132,0.92,0.062,1.284c0.191,0.363,0.549,0.639,1.034,0.795
		c0.989,0.316,1.879,0.314,2.592,0.004c0.826-0.356,1.426-0.998,1.632-1.634c0.003-0.011,0.006-0.022,0.011-0.035
		c0.133,0.345,0.354,0.573,0.694,0.679c0.472,0.154,0.908,0.017,1.42-0.334c0.022-0.016,0.038-0.041,0.039-0.069
		C31.482,41.091,31.469,41.063,31.451,41.043z M26.839,39.5c0.614-0.473,1.129-0.607,1.341-0.54
		c0.003,0.001,0.006,0.001,0.009,0.003c0.234,0.083,0.312,0.257,0.205,0.633c-0.088,0.274-0.382,0.708-0.872,1.272
		c-0.344,0.391-0.681,0.721-1.056,0.986c-0.518,0.378-0.97,0.479-1.209,0.398c-0.271-0.1-0.316-0.223-0.201-0.643
		C25.236,41.047,25.836,40.263,26.839,39.5z"/>
	<path fill="#FFFFFF" d="M40.365,43.905c0.002-0.027-0.008-0.054-0.027-0.072l-0.075-0.073c-0.033-0.033-0.084-0.037-0.122-0.008
		c-1.903,1.446-3.136,2.049-3.503,1.905c-0.1-0.032-0.133-0.126-0.114-0.185c0.089-0.29,0.424-0.548,0.928-0.943
		c0.626-0.501,1.118-0.869,1.289-1.393c0.165-0.516-0.104-1.056-0.653-1.232c-0.704-0.223-1.436,0.032-2.388,0.623
		c0.069-0.107,0.122-0.216,0.16-0.326c0.087-0.271,0.069-0.536-0.048-0.757c-0.117-0.22-0.329-0.389-0.617-0.48
		c-0.689-0.214-1.556,0.084-2.709,0.811l1.311-1.005c0.028-0.021,0.041-0.057,0.035-0.093c-0.007-0.036-0.032-0.062-0.065-0.072
		l-1.539-0.432c-0.032-0.009-0.066-0.001-0.089,0.021l-3.446,3.164c-0.025,0.022-0.035,0.057-0.028,0.091
		c0.01,0.034,0.035,0.06,0.068,0.069l1.523,0.402c0.031,0.009,0.066-0.001,0.092-0.024c1.013-1.019,1.946-1.709,2.677-2.124
		c0.729-0.418,1.282-0.547,1.449-0.482c0.097,0.03,0.163,0.151,0.133,0.24c-0.024,0.093-0.187,0.278-0.445,0.509l-2.533,2.284
		c-0.025,0.023-0.038,0.059-0.029,0.093c0.009,0.033,0.035,0.058,0.068,0.067l1.521,0.378c0.032,0.006,0.065-0.002,0.089-0.025
		c2.014-1.996,3.668-2.793,4.12-2.623c0.072,0.023,0.141,0.14,0.1,0.267c-0.051,0.202-0.454,0.425-1.033,0.856
		c-0.521,0.389-0.921,0.737-1.094,1.273c-0.101,0.321-0.092,0.618,0.024,0.862c0.112,0.242,0.329,0.424,0.617,0.516h0.003
		c0.941,0.29,2.247-0.468,4.316-2.012C40.349,43.958,40.363,43.934,40.365,43.905z"/>
	<path fill="#FFFFFF" d="M44.054,46.034l-0.042-0.062c-0.013-0.021-0.037-0.035-0.061-0.04c-0.025-0.005-0.052,0.001-0.072,0.017
		c-1.877,1.376-2.66,1.152-3.171,1.001c-0.505-0.147-0.684-0.562-0.499-1.17c0.025-0.081,0.084-0.203,0.165-0.386
		c2.077,0.172,3.228,0.081,3.521-0.764c0.156-0.487-0.173-0.919-0.777-1.112c-0.84-0.27-1.883-0.227-2.769,0.133
		c-0.87,0.352-1.477,0.958-1.69,1.619c-0.139,0.432-0.118,0.84,0.07,1.182s0.536,0.603,1.021,0.758
		c1.434,0.457,2.241,0.489,4.282-1.047C44.072,46.132,44.083,46.076,44.054,46.034z M40.539,45.13
		c0.798-1.113,1.837-1.53,2.128-1.438c0.005,0.003,0.01,0.004,0.013,0.005c0.076,0.028,0.122,0.098,0.079,0.246
		C42.541,44.633,41.724,45.19,40.539,45.13z"/>
	<path fill="#FFFFFF" d="M49.849,45.037c0.444,0.139,0.937-0.116,1.083-0.566c0.145-0.452-0.103-0.934-0.555-1.079
		c-0.454-0.144-0.946,0.108-1.091,0.552C49.148,44.389,49.406,44.891,49.849,45.037z M50.312,47.13l-0.041-0.062
		c-0.014-0.023-0.038-0.036-0.063-0.042c-0.024-0.001-0.052,0.004-0.072,0.019c-1.812,1.436-3.133,1.947-3.464,1.819
		c-0.138-0.052-0.185-0.133-0.146-0.269c0.131-0.445,1.137-1.331,2.84-2.788c0.026-0.021,0.038-0.057,0.03-0.09
		c-0.007-0.035-0.03-0.062-0.065-0.071l-1.516-0.426c-0.031-0.008-0.066,0-0.09,0.022l-1.42,1.309
		c-0.498,0.456-0.812,0.921-0.929,1.28c-0.101,0.317-0.1,0.607,0.005,0.842c0.104,0.235,0.313,0.408,0.59,0.497
		c0.892,0.275,2.356-0.354,4.323-1.915C50.33,47.225,50.339,47.17,50.312,47.13z"/>
	<path fill="#FFFFFF" d="M59.832,49.607C59.832,49.607,59.832,49.607,59.832,49.607c-0.055-0.233-0.137-0.447-0.262-0.637
		c-0.248-0.372-0.572-0.615-0.934-0.732c-0.754-0.236-1.637,0.053-2.463,0.695c-0.002,0.002-0.004,0.004-0.006,0.005
		c-1.873,1.401-3.059,2.025-3.504,1.859c-0.061-0.019-0.112-0.114-0.077-0.222c0.023-0.102,0.346-0.437,0.923-0.895
		c0.639-0.506,1.18-0.833,1.369-1.402c0.17-0.535-0.133-1.092-0.713-1.279c-0.691-0.214-1.602,0.079-2.789,0.819l1.297-0.995
		c0.028-0.021,0.041-0.057,0.035-0.092c-0.007-0.035-0.033-0.063-0.066-0.073l-1.538-0.432c-0.031-0.01-0.066,0-0.09,0.021
		l-3.445,3.163c-0.024,0.023-0.036,0.059-0.028,0.092s0.035,0.06,0.068,0.068l1.523,0.402c0.033,0.008,0.066-0.001,0.092-0.025
		c2.015-2.041,3.752-2.764,4.152-2.608c0.168,0.057,0.229,0.175,0.197,0.272c-0.07,0.251-0.459,0.443-1.023,0.861
		c-0.54,0.408-0.938,0.757-1.11,1.291c-0.102,0.319-0.094,0.617,0.021,0.86c0.114,0.244,0.331,0.424,0.617,0.518h0.003
		c0.943,0.288,2.236-0.471,4.308-2.016v-0.002c0.773-0.586,1.555-0.814,2.158-0.618c0.301,0.099,0.568,0.294,0.789,0.62
		c0.105,0.155,0.178,0.345,0.223,0.555c0,0.002,0,0.004,0,0.006h0.002c0,0,0.002,0.008,0.002,0.012
		c0.143,0.689-0.002,1.614-0.246,2.356c-0.098,0.302-0.209,0.574-0.312,0.788c-0.631,1.273-1.982,1.829-3.385,1.947
		c-0.943,0.08-1.99-0.133-2.996-0.457c-0.728-0.234-1.432-0.521-2.057-0.793c-2.809-1.22-5.311-3.061-8.165-4.285
		c-0.86-0.369-1.773-0.752-2.712-1.053c-0.1-0.031-0.197-0.061-0.294-0.089c-0.016-0.007-0.033-0.013-0.049-0.019
		c-0.007-0.002-0.012-0.002-0.02-0.004c-1.205-0.354-2.449-0.562-3.687-0.414c-1.375,0.166-2.932,0.605-4.156,1.283
		c-0.068,0.038-0.094,0.123-0.056,0.191c0.02,0.033,0.05,0.055,0.081,0.066c0.036,0.01,0.076,0.01,0.11-0.012
		c1.183-0.652,2.714-1.088,4.054-1.248c1.199-0.144,2.425,0.06,3.62,0.417c1.597,0.568,3.245,1.469,4.495,2.23
		c1.263,0.77,2.116,1.391,2.117,1.393c2.516,1.948,4.628,3.008,6.327,3.553l0.005,0.003c3.398,1.089,5.146,0.11,5.171,0.095
		c1.357-0.596,2.057-1.596,2.377-2.603C60.336,51.34,59.834,49.622,59.832,49.607z"/>
	<circle fill="#FFFFFF" cx="36.79" cy="33.816" r="1.312"/>
	<circle fill="#FFFFFF" cx="79.241" cy="47.436" r="1.312"/>
</g>
<rect id="_x3C_Slice_x3E_" x="-18" y="-20" fill="none" width="136" height="132"/>
<rect id="_x3C_Slice_x3E__1_" y="-7" fill="none" width="104" height="103"/>
<rect id="_x3C_Slice_x3E__2_" fill="none" width="104" height="96"/>
</svg>
